<svg width="186" height="158" viewBox="0 0 186 158" fill="none" xmlns="http://www.w3.org/2000/svg">
<path d="M2.72223 155.948L89.6288 3.44348L102.719 24.9835L42.2222 133.948H69.7222L91.7222 94.9481L105.722 116.448L84.2222 155.948H2.72223Z" fill="black"/>
<path d="M117.722 48.6035L105.929 69.4481L118.729 90.8035L130.222 71.0035L117.722 48.6035Z" fill="black"/>
<path d="M131.222 111.948L142.222 89.9481L183.222 155.948H156.722L131.222 111.948Z" fill="black"/>
<path d="M2.72223 155.948L89.6288 3.44348L102.719 24.9835L42.2222 133.948H69.7222L91.7222 94.9481L105.722 116.448L84.2222 155.948H2.72223Z" stroke="black" stroke-width="3"/>
<path d="M117.722 48.6035L105.929 69.4481L118.729 90.8035L130.222 71.0035L117.722 48.6035Z" stroke="black" stroke-width="3"/>
<path d="M131.222 111.948L142.222 89.9481L183.222 155.948H156.722L131.222 111.948Z" stroke="black" stroke-width="3"/>
</svg>
