<svg width="188" height="162" viewBox="0 0 188 162" fill="none" xmlns="http://www.w3.org/2000/svg">
<path d="M3 160.5L92 3L106 26.5L42.5 138.5H70L92 99.5L106 121L84.5 160.5H3Z" fill="#0E0D0D"/>
<path d="M120 53L106 75L120 93L132.5 75L120 53Z" fill="#0E0D0D"/>
<path d="M144.5 95.5L132.5 114.5L158 160.5H184.5L144.5 95.5Z" fill="#0E0D0D"/>
<path d="M3 160.5L92 3L106 26.5L42.5 138.5H70L92 99.5L106 121L84.5 160.5H3Z" stroke="#0E0D0D" stroke-width="3"/>
<path d="M120 53L106 75L120 93L132.5 75L120 53Z" stroke="#0E0D0D" stroke-width="3"/>
<path d="M144.5 95.5L132.5 114.5L158 160.5H184.5L144.5 95.5Z" stroke="#0E0D0D" stroke-width="3"/>
</svg>
